<?xml version="1.0" encoding="utf-8"?>
<!-- Generator: Adobe Illustrator 16.0.0, SVG Export Plug-In . SVG Version: 6.00 Build 0)  -->
<!DOCTYPE svg PUBLIC "-//W3C//DTD SVG 1.1//EN" "http://www.w3.org/Graphics/SVG/1.1/DTD/svg11.dtd">
<svg version="1.1" id="Layer_1" xmlns="http://www.w3.org/2000/svg" xmlns:xlink="http://www.w3.org/1999/xlink" x="0px" y="0px"
	 width="215px" height="626px" viewBox="0 0 215 626" enable-background="new 0 0 215 626" xml:space="preserve">
<g id="obj_2">
	<g id="obj_59" transform="matrix(1,0,0,1,1139.855,98.232)">
		<path fill="#4C4C4C" d="M-1003.365-54.088l-1.544,30.411h6.076c0.879-4.019,3.452-6.933,6.486-6.933
			c3.76,0,6.812,4.47,6.812,9.978c0,5.506-3.052,9.977-6.812,9.977c-3.034,0-5.607-2.912-6.486-6.933h-6.326
			c-0.59,9.387-3.896,17.509-8.653,22.36c0.196,0.746,0.302,1.52,0.302,2.315l8.028,231.771
			c31.168,6.707,53.245,26.156,53.703,52.465c0.516,29.357-13.208,40.846-8.583,63.396c4.623,22.547,34.966,46.977,35.721,90.204
			c0.847,48.549-35.561,82.618-107.398,82.768l0,0c-0.053,0-0.104,0-0.157,0s-0.106,0-0.158,0c-0.056,0-0.109,0-0.16,0
			c-0.053,0-0.104,0-0.158,0l0,0c-71.838-0.149-108.245-34.219-107.396-82.768c0.754-43.228,31.095-67.657,35.721-90.204
			c4.624-22.551-9.099-34.039-8.585-63.396c0.46-26.309,22.538-45.758,53.704-52.465l8.028-231.771c0-0.795,0.105-1.569,0.302-2.315
			c-4.757-4.851-8.062-12.973-8.653-22.36h-6.326c-0.879,4.021-3.453,6.933-6.486,6.933c-3.759,0-6.81-4.471-6.81-9.977
			c0-5.508,3.051-9.978,6.81-9.978c3.033,0,5.607,2.914,6.486,6.933h6.076l-1.557-30.672h-4.52
			c-0.879,4.022-3.453,6.933-6.486,6.933c-3.759,0-6.81-4.468-6.81-9.978c0-5.505,3.051-9.978,6.81-9.978
			c3.033,0,5.607,2.916,6.486,6.936h4.209l-1.357-26.738h8.87c0-5.772,12.139-10.98,22.118-10.98c9.98,0,21.484,5.208,21.484,10.98
			h8.871l-1.371,26.997h4.224c0.879-4.019,3.451-6.933,6.485-6.933c3.761,0,6.812,4.47,6.812,9.978c0,5.506-3.052,9.977-6.812,9.977
			c-3.034,0-5.606-2.912-6.485-6.933H-1003.365z M-1014.3-29.536c0-2.97-2.414-5.383-5.387-5.383c-2.094,0-3.913,1.2-4.803,2.949
			l2.431-28.586c0.716,0.352,1.521,0.549,2.372,0.549c2.973,0,5.387-2.411,5.387-5.383c0-2.972-2.414-5.386-5.387-5.386
			c-2.972,0-5.383,2.414-5.383,5.386c0,0.75,0.154,1.47,0.434,2.121l-4.526,68.948l1.142,284.211c0.93,0.102,1.85,0.231,2.761,0.396
			l-1.295-284.608l1.267-28.245l4.526,28.245l5.596,287.863c0.953,0.453,1.884,0.945,2.791,1.472l-5.779-289.334l-4.916-31.026
			c0.925,0.749,2.103,1.196,3.384,1.196C-1016.714-24.151-1014.3-26.563-1014.3-29.536z M-982.413,449.114h-26.883l-1.714-85.817
			c-0.9,0.569-1.823,1.104-2.771,1.604l1.64,84.213h-12.396l-0.366-80.328c-0.922,0.174-1.856,0.317-2.8,0.426l0.32,79.902h-12.715
			l0.824-80.231c-0.943-0.165-1.875-0.362-2.795-0.594l-0.875,80.825h-13.152l2.354-85.843c-0.941-0.6-1.856-1.237-2.743-1.911
			l-2.454,87.754h-23.357V481h99.884V449.114z M-1041.496-25.47l-5.061,31.939l-8.113,290.006c0.911-0.614,1.849-1.193,2.808-1.732
			l7.913-288.274l4.525-28.243l1.267,28.243l-3.071,284.179c0.909-0.208,1.832-0.382,2.766-0.526l2.915-283.653l-4.574-69.637
			c0.308-0.678,0.479-1.43,0.479-2.222c0-2.972-2.412-5.386-5.385-5.386c-2.972,0-5.384,2.414-5.384,5.386
			c0,2.972,2.412,5.383,5.384,5.383c0.827,0,1.608-0.185,2.31-0.517l2.415,28.403c-0.916-1.667-2.689-2.798-4.725-2.798
			c-2.972,0-5.384,2.413-5.384,5.383c0,2.973,2.412,5.385,5.384,5.385C-1043.677-24.151-1042.443-24.647-1041.496-25.47z
			 M-1062.29,329.569c0,16.53,13.403,29.933,29.935,29.933c16.528,0,29.932-13.402,29.932-29.933
			c0-16.531-13.403-29.933-29.932-29.933C-1048.886,299.636-1062.29,313.038-1062.29,329.569z"/>
	</g>
</g>
</svg>
